<svg width="64" height="64" viewBox="0 0 64 64" fill="none" xmlns="http://www.w3.org/2000/svg">
<rect width="64" height="64" rx="4" fill="#CCFF6F"/>
<g clip-path="url(#clip0_7086_146)">
<path d="M51.4304 26.1189L33.4326 11V21.2645C33.4326 22.531 32.4087 23.5569 31.1447 23.5569H12V29.6307H50.9198C51.5169 29.6307 52.0014 29.1452 52.0014 28.5469V27.3428C52.0014 26.8709 51.7934 26.4233 51.4318 26.1189H51.4304Z" fill="#13191A"/>
<path d="M12.5697 36.881L30.569 51.9999V41.7354C30.569 40.4689 31.5929 39.4429 32.8569 39.4429H52.0014V33.3691H13.0817C12.4846 33.3691 12 33.8547 12 34.453V35.6571C12 36.129 12.2081 36.5765 12.5697 36.881Z" fill="#13191A"/>
</g>
<defs>
<clipPath id="clip0_7086_146">
<rect width="40" height="41" fill="white" transform="translate(12 11)"/>
</clipPath>
</defs>
</svg>
